<?xml version="1.0" encoding="utf-8" ?>
<svg baseProfile="full" height="256" version="1.1" width="256" xmlns="http://www.w3.org/2000/svg" xmlns:ev="http://www.w3.org/2001/xml-events" xmlns:xlink="http://www.w3.org/1999/xlink"><defs /><rect fill="rgb(132,130,131)" height="16" width="16" x="0" y="0" /><rect fill="rgb(120,141,114)" height="16" width="16" x="16" y="0" /><rect fill="rgb(129,133,133)" height="16" width="16" x="32" y="0" /><rect fill="rgb(142,137,120)" height="16" width="16" x="48" y="0" /><rect fill="rgb(143,126,133)" height="16" width="16" x="64" y="0" /><rect fill="rgb(134,132,126)" height="16" width="16" x="80" y="0" /><rect fill="rgb(120,108,126)" height="16" width="16" x="96" y="0" /><rect fill="rgb(112,125,120)" height="16" width="16" x="112" y="0" /><rect fill="rgb(131,138,132)" height="16" width="16" x="128" y="0" /><rect fill="rgb(121,132,125)" height="16" width="16" x="144" y="0" /><rect fill="rgb(135,124,136)" height="16" width="16" x="160" y="0" /><rect fill="rgb(129,124,120)" height="16" width="16" x="176" y="0" /><rect fill="rgb(129,133,123)" height="16" width="16" x="192" y="0" /><rect fill="rgb(113,125,131)" height="16" width="16" x="208" y="0" /><rect fill="rgb(125,128,130)" height="16" width="16" x="224" y="0" /><rect fill="rgb(126,125,135)" height="16" width="16" x="240" y="0" /><rect fill="rgb(133,124,127)" height="16" width="16" x="0" y="16" /><rect fill="rgb(125,124,124)" height="16" width="16" x="16" y="16" /><rect fill="rgb(129,129,140)" height="16" width="16" x="32" y="16" /><rect fill="rgb(126,118,116)" height="16" width="16" x="48" y="16" /><rect fill="rgb(131,128,127)" height="16" width="16" x="64" y="16" /><rect fill="rgb(122,138,121)" height="16" width="16" x="80" y="16" /><rect fill="rgb(118,112,123)" height="16" width="16" x="96" y="16" /><rect fill="rgb(129,119,128)" height="16" width="16" x="112" y="16" /><rect fill="rgb(128,132,125)" height="16" width="16" x="128" y="16" /><rect fill="rgb(132,120,120)" height="16" width="16" x="144" y="16" /><rect fill="rgb(112,123,119)" height="16" width="16" x="160" y="16" /><rect fill="rgb(126,136,128)" height="16" width="16" x="176" y="16" /><rect fill="rgb(137,124,123)" height="16" width="16" x="192" y="16" /><rect fill="rgb(134,128,119)" height="16" width="16" x="208" y="16" /><rect fill="rgb(127,131,127)" height="16" width="16" x="224" y="16" /><rect fill="rgb(133,120,128)" height="16" width="16" x="240" y="16" /><rect fill="rgb(126,126,142)" height="16" width="16" x="0" y="32" /><rect fill="rgb(117,140,130)" height="16" width="16" x="16" y="32" /><rect fill="rgb(129,122,124)" height="16" width="16" x="32" y="32" /><rect fill="rgb(116,120,116)" height="16" width="16" x="48" y="32" /><rect fill="rgb(136,135,122)" height="16" width="16" x="64" y="32" /><rect fill="rgb(127,133,122)" height="16" width="16" x="80" y="32" /><rect fill="rgb(122,119,130)" height="16" width="16" x="96" y="32" /><rect fill="rgb(133,130,130)" height="16" width="16" x="112" y="32" /><rect fill="rgb(118,118,135)" height="16" width="16" x="128" y="32" /><rect fill="rgb(121,130,131)" height="16" width="16" x="144" y="32" /><rect fill="rgb(126,131,119)" height="16" width="16" x="160" y="32" /><rect fill="rgb(127,134,125)" height="16" width="16" x="176" y="32" /><rect fill="rgb(126,120,117)" height="16" width="16" x="192" y="32" /><rect fill="rgb(131,125,134)" height="16" width="16" x="208" y="32" /><rect fill="rgb(129,123,140)" height="16" width="16" x="224" y="32" /><rect fill="rgb(118,130,136)" height="16" width="16" x="240" y="32" /><rect fill="rgb(121,135,138)" height="16" width="16" x="0" y="48" /><rect fill="rgb(128,129,131)" height="16" width="16" x="16" y="48" /><rect fill="rgb(123,117,125)" height="16" width="16" x="32" y="48" /><rect fill="rgb(130,133,121)" height="16" width="16" x="48" y="48" /><rect fill="rgb(136,119,129)" height="16" width="16" x="64" y="48" /><rect fill="rgb(122,125,125)" height="16" width="16" x="80" y="48" /><rect fill="rgb(134,129,128)" height="16" width="16" x="96" y="48" /><rect fill="rgb(118,129,125)" height="16" width="16" x="112" y="48" /><rect fill="rgb(136,127,130)" height="16" width="16" x="128" y="48" /><rect fill="rgb(119,113,130)" height="16" width="16" x="144" y="48" /><rect fill="rgb(133,109,128)" height="16" width="16" x="160" y="48" /><rect fill="rgb(125,129,131)" height="16" width="16" x="176" y="48" /><rect fill="rgb(129,140,128)" height="16" width="16" x="192" y="48" /><rect fill="rgb(130,127,135)" height="16" width="16" x="208" y="48" /><rect fill="rgb(133,108,127)" height="16" width="16" x="224" y="48" /><rect fill="rgb(124,132,125)" height="16" width="16" x="240" y="48" /><rect fill="rgb(130,123,132)" height="16" width="16" x="0" y="64" /><rect fill="rgb(141,125,123)" height="16" width="16" x="16" y="64" /><rect fill="rgb(138,135,127)" height="16" width="16" x="32" y="64" /><rect fill="rgb(120,125,127)" height="16" width="16" x="48" y="64" /><rect fill="rgb(122,132,123)" height="16" width="16" x="64" y="64" /><rect fill="rgb(123,132,133)" height="16" width="16" x="80" y="64" /><rect fill="rgb(133,122,127)" height="16" width="16" x="96" y="64" /><rect fill="rgb(115,124,121)" height="16" width="16" x="112" y="64" /><rect fill="rgb(130,132,121)" height="16" width="16" x="128" y="64" /><rect fill="rgb(136,121,132)" height="16" width="16" x="144" y="64" /><rect fill="rgb(127,140,129)" height="16" width="16" x="160" y="64" /><rect fill="rgb(134,131,127)" height="16" width="16" x="176" y="64" /><rect fill="rgb(118,116,132)" height="16" width="16" x="192" y="64" /><rect fill="rgb(132,126,122)" height="16" width="16" x="208" y="64" /><rect fill="rgb(123,124,118)" height="16" width="16" x="224" y="64" /><rect fill="rgb(124,137,122)" height="16" width="16" x="240" y="64" /><rect fill="rgb(131,129,137)" height="16" width="16" x="0" y="80" /><rect fill="rgb(138,139,125)" height="16" width="16" x="16" y="80" /><rect fill="rgb(129,137,138)" height="16" width="16" x="32" y="80" /><rect fill="rgb(119,125,125)" height="16" width="16" x="48" y="80" /><rect fill="rgb(125,132,127)" height="16" width="16" x="64" y="80" /><rect fill="rgb(138,119,134)" height="16" width="16" x="80" y="80" /><rect fill="rgb(136,118,129)" height="16" width="16" x="96" y="80" /><rect fill="rgb(127,128,123)" height="16" width="16" x="112" y="80" /><rect fill="rgb(130,131,138)" height="16" width="16" x="128" y="80" /><rect fill="rgb(128,120,123)" height="16" width="16" x="144" y="80" /><rect fill="rgb(135,132,130)" height="16" width="16" x="160" y="80" /><rect fill="rgb(115,125,129)" height="16" width="16" x="176" y="80" /><rect fill="rgb(131,124,121)" height="16" width="16" x="192" y="80" /><rect fill="rgb(124,136,128)" height="16" width="16" x="208" y="80" /><rect fill="rgb(131,133,135)" height="16" width="16" x="224" y="80" /><rect fill="rgb(123,130,126)" height="16" width="16" x="240" y="80" /><rect fill="rgb(126,129,124)" height="16" width="16" x="0" y="96" /><rect fill="rgb(125,127,122)" height="16" width="16" x="16" y="96" /><rect fill="rgb(123,131,121)" height="16" width="16" x="32" y="96" /><rect fill="rgb(137,124,132)" height="16" width="16" x="48" y="96" /><rect fill="rgb(131,135,129)" height="16" width="16" x="64" y="96" /><rect fill="rgb(124,135,129)" height="16" width="16" x="80" y="96" /><rect fill="rgb(127,127,122)" height="16" width="16" x="96" y="96" /><rect fill="rgb(132,132,124)" height="16" width="16" x="112" y="96" /><rect fill="rgb(116,115,132)" height="16" width="16" x="128" y="96" /><rect fill="rgb(125,133,132)" height="16" width="16" x="144" y="96" /><rect fill="rgb(130,130,122)" height="16" width="16" x="160" y="96" /><rect fill="rgb(126,127,131)" height="16" width="16" x="176" y="96" /><rect fill="rgb(123,127,133)" height="16" width="16" x="192" y="96" /><rect fill="rgb(130,121,112)" height="16" width="16" x="208" y="96" /><rect fill="rgb(133,114,124)" height="16" width="16" x="224" y="96" /><rect fill="rgb(112,125,122)" height="16" width="16" x="240" y="96" /><rect fill="rgb(142,133,133)" height="16" width="16" x="0" y="112" /><rect fill="rgb(113,132,131)" height="16" width="16" x="16" y="112" /><rect fill="rgb(134,124,125)" height="16" width="16" x="32" y="112" /><rect fill="rgb(124,120,122)" height="16" width="16" x="48" y="112" /><rect fill="rgb(129,128,115)" height="16" width="16" x="64" y="112" /><rect fill="rgb(128,123,126)" height="16" width="16" x="80" y="112" /><rect fill="rgb(120,131,127)" height="16" width="16" x="96" y="112" /><rect fill="rgb(136,117,129)" height="16" width="16" x="112" y="112" /><rect fill="rgb(126,122,122)" height="16" width="16" x="128" y="112" /><rect fill="rgb(131,132,120)" height="16" width="16" x="144" y="112" /><rect fill="rgb(126,129,117)" height="16" width="16" x="160" y="112" /><rect fill="rgb(129,135,120)" height="16" width="16" x="176" y="112" /><rect fill="rgb(126,125,128)" height="16" width="16" x="192" y="112" /><rect fill="rgb(118,125,122)" height="16" width="16" x="208" y="112" /><rect fill="rgb(117,117,127)" height="16" width="16" x="224" y="112" /><rect fill="rgb(131,127,123)" height="16" width="16" x="240" y="112" /><rect fill="rgb(126,127,128)" height="16" width="16" x="0" y="128" /><rect fill="rgb(135,118,119)" height="16" width="16" x="16" y="128" /><rect fill="rgb(131,138,130)" height="16" width="16" x="32" y="128" /><rect fill="rgb(125,122,132)" height="16" width="16" x="48" y="128" /><rect fill="rgb(135,128,134)" height="16" width="16" x="64" y="128" /><rect fill="rgb(128,125,138)" height="16" width="16" x="80" y="128" /><rect fill="rgb(136,121,133)" height="16" width="16" x="96" y="128" /><rect fill="rgb(131,121,129)" height="16" width="16" x="112" y="128" /><rect fill="rgb(131,123,124)" height="16" width="16" x="128" y="128" /><rect fill="rgb(121,126,137)" height="16" width="16" x="144" y="128" /><rect fill="rgb(122,138,132)" height="16" width="16" x="160" y="128" /><rect fill="rgb(139,121,135)" height="16" width="16" x="176" y="128" /><rect fill="rgb(118,145,129)" height="16" width="16" x="192" y="128" /><rect fill="rgb(133,118,140)" height="16" width="16" x="208" y="128" /><rect fill="rgb(124,138,129)" height="16" width="16" x="224" y="128" /><rect fill="rgb(131,135,131)" height="16" width="16" x="240" y="128" /><rect fill="rgb(132,118,132)" height="16" width="16" x="0" y="144" /><rect fill="rgb(140,123,120)" height="16" width="16" x="16" y="144" /><rect fill="rgb(123,129,127)" height="16" width="16" x="32" y="144" /><rect fill="rgb(131,115,131)" height="16" width="16" x="48" y="144" /><rect fill="rgb(135,124,128)" height="16" width="16" x="64" y="144" /><rect fill="rgb(116,117,116)" height="16" width="16" x="80" y="144" /><rect fill="rgb(127,123,129)" height="16" width="16" x="96" y="144" /><rect fill="rgb(123,136,132)" height="16" width="16" x="112" y="144" /><rect fill="rgb(122,122,142)" height="16" width="16" x="128" y="144" /><rect fill="rgb(128,119,136)" height="16" width="16" x="144" y="144" /><rect fill="rgb(133,118,132)" height="16" width="16" x="160" y="144" /><rect fill="rgb(130,125,123)" height="16" width="16" x="176" y="144" /><rect fill="rgb(132,119,128)" height="16" width="16" x="192" y="144" /><rect fill="rgb(131,129,127)" height="16" width="16" x="208" y="144" /><rect fill="rgb(135,114,127)" height="16" width="16" x="224" y="144" /><rect fill="rgb(123,123,132)" height="16" width="16" x="240" y="144" /><rect fill="rgb(112,127,133)" height="16" width="16" x="0" y="160" /><rect fill="rgb(135,135,132)" height="16" width="16" x="16" y="160" /><rect fill="rgb(127,125,134)" height="16" width="16" x="32" y="160" /><rect fill="rgb(115,134,134)" height="16" width="16" x="48" y="160" /><rect fill="rgb(120,125,143)" height="16" width="16" x="64" y="160" /><rect fill="rgb(127,121,137)" height="16" width="16" x="80" y="160" /><rect fill="rgb(120,120,140)" height="16" width="16" x="96" y="160" /><rect fill="rgb(128,120,126)" height="16" width="16" x="112" y="160" /><rect fill="rgb(141,126,112)" height="16" width="16" x="128" y="160" /><rect fill="rgb(125,136,120)" height="16" width="16" x="144" y="160" /><rect fill="rgb(136,130,122)" height="16" width="16" x="160" y="160" /><rect fill="rgb(118,119,144)" height="16" width="16" x="176" y="160" /><rect fill="rgb(119,120,126)" height="16" width="16" x="192" y="160" /><rect fill="rgb(112,135,128)" height="16" width="16" x="208" y="160" /><rect fill="rgb(123,134,125)" height="16" width="16" x="224" y="160" /><rect fill="rgb(126,121,119)" height="16" width="16" x="240" y="160" /><rect fill="rgb(135,126,120)" height="16" width="16" x="0" y="176" /><rect fill="rgb(131,127,138)" height="16" width="16" x="16" y="176" /><rect fill="rgb(125,128,135)" height="16" width="16" x="32" y="176" /><rect fill="rgb(144,119,119)" height="16" width="16" x="48" y="176" /><rect fill="rgb(114,125,118)" height="16" width="16" x="64" y="176" /><rect fill="rgb(134,119,125)" height="16" width="16" x="80" y="176" /><rect fill="rgb(128,129,139)" height="16" width="16" x="96" y="176" /><rect fill="rgb(119,132,115)" height="16" width="16" x="112" y="176" /><rect fill="rgb(124,132,130)" height="16" width="16" x="128" y="176" /><rect fill="rgb(120,127,127)" height="16" width="16" x="144" y="176" /><rect fill="rgb(127,117,127)" height="16" width="16" x="160" y="176" /><rect fill="rgb(132,120,134)" height="16" width="16" x="176" y="176" /><rect fill="rgb(120,131,135)" height="16" width="16" x="192" y="176" /><rect fill="rgb(130,140,124)" height="16" width="16" x="208" y="176" /><rect fill="rgb(122,127,107)" height="16" width="16" x="224" y="176" /><rect fill="rgb(138,131,121)" height="16" width="16" x="240" y="176" /><rect fill="rgb(130,126,124)" height="16" width="16" x="0" y="192" /><rect fill="rgb(135,134,116)" height="16" width="16" x="16" y="192" /><rect fill="rgb(133,127,128)" height="16" width="16" x="32" y="192" /><rect fill="rgb(130,125,137)" height="16" width="16" x="48" y="192" /><rect fill="rgb(118,126,136)" height="16" width="16" x="64" y="192" /><rect fill="rgb(134,139,131)" height="16" width="16" x="80" y="192" /><rect fill="rgb(125,133,135)" height="16" width="16" x="96" y="192" /><rect fill="rgb(143,113,130)" height="16" width="16" x="112" y="192" /><rect fill="rgb(122,138,123)" height="16" width="16" x="128" y="192" /><rect fill="rgb(112,123,134)" height="16" width="16" x="144" y="192" /><rect fill="rgb(136,129,125)" height="16" width="16" x="160" y="192" /><rect fill="rgb(120,133,121)" height="16" width="16" x="176" y="192" /><rect fill="rgb(127,127,126)" height="16" width="16" x="192" y="192" /><rect fill="rgb(138,118,118)" height="16" width="16" x="208" y="192" /><rect fill="rgb(142,118,121)" height="16" width="16" x="224" y="192" /><rect fill="rgb(123,137,127)" height="16" width="16" x="240" y="192" /><rect fill="rgb(126,123,134)" height="16" width="16" x="0" y="208" /><rect fill="rgb(119,128,122)" height="16" width="16" x="16" y="208" /><rect fill="rgb(130,126,135)" height="16" width="16" x="32" y="208" /><rect fill="rgb(133,139,126)" height="16" width="16" x="48" y="208" /><rect fill="rgb(131,120,129)" height="16" width="16" x="64" y="208" /><rect fill="rgb(139,122,126)" height="16" width="16" x="80" y="208" /><rect fill="rgb(127,115,114)" height="16" width="16" x="96" y="208" /><rect fill="rgb(134,131,127)" height="16" width="16" x="112" y="208" /><rect fill="rgb(122,111,139)" height="16" width="16" x="128" y="208" /><rect fill="rgb(129,132,140)" height="16" width="16" x="144" y="208" /><rect fill="rgb(127,133,132)" height="16" width="16" x="160" y="208" /><rect fill="rgb(121,136,125)" height="16" width="16" x="176" y="208" /><rect fill="rgb(124,119,125)" height="16" width="16" x="192" y="208" /><rect fill="rgb(130,121,131)" height="16" width="16" x="208" y="208" /><rect fill="rgb(137,130,122)" height="16" width="16" x="224" y="208" /><rect fill="rgb(119,113,127)" height="16" width="16" x="240" y="208" /><rect fill="rgb(131,126,121)" height="16" width="16" x="0" y="224" /><rect fill="rgb(135,127,139)" height="16" width="16" x="16" y="224" /><rect fill="rgb(123,130,126)" height="16" width="16" x="32" y="224" /><rect fill="rgb(131,114,120)" height="16" width="16" x="48" y="224" /><rect fill="rgb(132,141,132)" height="16" width="16" x="64" y="224" /><rect fill="rgb(114,137,128)" height="16" width="16" x="80" y="224" /><rect fill="rgb(125,114,129)" height="16" width="16" x="96" y="224" /><rect fill="rgb(131,124,125)" height="16" width="16" x="112" y="224" /><rect fill="rgb(118,122,133)" height="16" width="16" x="128" y="224" /><rect fill="rgb(137,135,135)" height="16" width="16" x="144" y="224" /><rect fill="rgb(129,129,130)" height="16" width="16" x="160" y="224" /><rect fill="rgb(122,131,131)" height="16" width="16" x="176" y="224" /><rect fill="rgb(122,129,129)" height="16" width="16" x="192" y="224" /><rect fill="rgb(139,139,123)" height="16" width="16" x="208" y="224" /><rect fill="rgb(139,119,113)" height="16" width="16" x="224" y="224" /><rect fill="rgb(127,153,129)" height="16" width="16" x="240" y="224" /><rect fill="rgb(130,134,125)" height="16" width="16" x="0" y="240" /><rect fill="rgb(130,125,129)" height="16" width="16" x="16" y="240" /><rect fill="rgb(127,121,131)" height="16" width="16" x="32" y="240" /><rect fill="rgb(125,128,127)" height="16" width="16" x="48" y="240" /><rect fill="rgb(117,116,129)" height="16" width="16" x="64" y="240" /><rect fill="rgb(112,129,124)" height="16" width="16" x="80" y="240" /><rect fill="rgb(132,121,132)" height="16" width="16" x="96" y="240" /><rect fill="rgb(135,129,126)" height="16" width="16" x="112" y="240" /><rect fill="rgb(135,129,128)" height="16" width="16" x="128" y="240" /><rect fill="rgb(123,134,131)" height="16" width="16" x="144" y="240" /><rect fill="rgb(123,133,131)" height="16" width="16" x="160" y="240" /><rect fill="rgb(125,124,143)" height="16" width="16" x="176" y="240" /><rect fill="rgb(117,118,127)" height="16" width="16" x="192" y="240" /><rect fill="rgb(126,118,136)" height="16" width="16" x="208" y="240" /><rect fill="rgb(140,121,132)" height="16" width="16" x="224" y="240" /><rect fill="rgb(119,123,121)" height="16" width="16" x="240" y="240" /><text x="128" y="128">Unchain</text></svg>